<?xml version="1.0" encoding="UTF-8" standalone="no"?>
<!-- Created with Inkscape (http://www.inkscape.org/) -->

<svg
   width="256mm"
   height="256mm"
   viewBox="0 0 256 256"
   version="1.1"
   id="svg5"
   xml:space="preserve"
   inkscape:version="1.2.1 (9c6d41e410, 2022-07-14)"
   sodipodi:docname="network-remote-icon.svg"
   xmlns:inkscape="http://www.inkscape.org/namespaces/inkscape"
   xmlns:sodipodi="http://sodipodi.sourceforge.net/DTD/sodipodi-0.dtd"
   xmlns="http://www.w3.org/2000/svg"
   xmlns:svg="http://www.w3.org/2000/svg"
   xmlns:rdf="http://www.w3.org/1999/02/22-rdf-syntax-ns#"
   xmlns:cc="http://creativecommons.org/ns#"
   xmlns:dc="http://purl.org/dc/elements/1.1/"><title
     id="title341">Rabbit-Home Icon</title><sodipodi:namedview
     id="namedview7"
     pagecolor="#ffffff"
     bordercolor="#000000"
     borderopacity="0.25"
     inkscape:showpageshadow="2"
     inkscape:pageopacity="0.0"
     inkscape:pagecheckerboard="0"
     inkscape:deskcolor="#d1d1d1"
     inkscape:document-units="mm"
     showgrid="false"
     inkscape:zoom="0.22158854"
     inkscape:cx="216.6177"
     inkscape:cy="333.95229"
     inkscape:window-width="1920"
     inkscape:window-height="1137"
     inkscape:window-x="-8"
     inkscape:window-y="537"
     inkscape:window-maximized="1"
     inkscape:current-layer="layer1" /><defs
     id="defs2"><inkscape:path-effect
       effect="fillet_chamfer"
       id="path-effect1174"
       is_visible="true"
       lpeversion="1"
       nodesatellites_param="F,0,0,1,0,26.458333,0,1 @ F,0,0,1,0,26.458333,0,1 @ F,0,0,1,0,26.458333,0,1 @ F,0,0,1,0,26.458333,0,1"
       unit="px"
       method="auto"
       mode="F"
       radius="100"
       chamfer_steps="1"
       flexible="false"
       use_knot_distance="true"
       apply_no_radius="true"
       apply_with_radius="true"
       only_selected="false"
       hide_knots="false" /></defs><g
     inkscape:label="Calque 1"
     inkscape:groupmode="layer"
     id="layer1"><path
       id="path430"
       style="fill:#2060df;stroke:none;stroke-width:0.215;fill-opacity:1"
       d="m 175.88642,10.337354 c -0.23385,7.2e-4 0,0.0041 0,0.0041 v 24.484811 c 0,0 19.26101,-0.432775 33.7721,13.086539 14.5111,13.519315 13.93145,33.772616 13.93145,33.772616 h 23.64042 c 0,0 2.12528,-25.722738 -18.99678,-48.970138 C 208.43168,10.920879 179.39424,10.326545 175.88642,10.337354 Z m 0,35.800399 c -1.2018,0.0098 0,0.08682 0,0.08682 v 24.484811 c 0,0 5.22475,-0.432756 8.12664,2.005045 2.90188,2.437801 3.06028,8.971029 3.06028,8.971029 h 24.27397 c 0,0 0.85858,-15.907559 -10.02627,-26.490373 -8.50378,-8.267822 -19.24439,-9.092167 -23.53654,-9.057328 z"
       sodipodi:nodetypes="sccsccsssccsccsss" /><path
       id="path1172"
       style="display:inline;fill:#2060df;stroke:none;stroke-width:0.215;fill-opacity:1"
       d="m 128.4826,57.76495 a 26.412796,26.412796 0 0 0 -20.55895,7.739063 L 17.449581,156.61267 a 26.598099,26.598099 0 0 0 0.03204,37.51606 l 46.52946,46.69482 a 26.380723,26.380723 0 0 0 37.362579,0.0119 l 90.98411,-91.19599 a 26.442241,26.442241 0 0 0 -0.0548,-37.40598 L 145.30896,65.405827 A 26.412796,26.412796 0 0 0 128.4826,57.76495 Z m -0.12454,35.003032 A 36.417912,36.417912 0 0 1 164.77599,129.18592 36.417912,36.417912 0 0 1 128.35806,165.60385 36.417912,36.417912 0 0 1 91.940125,129.18592 36.417912,36.417912 0 0 1 128.35806,92.767982 Z M 56.716435,152.70025 a 12.537314,12.537314 0 0 1 12.537219,12.53722 12.537314,12.537314 0 0 1 -12.537219,12.53722 12.537314,12.537314 0 0 1 -12.53722,-12.53722 12.537314,12.537314 0 0 1 12.53722,-12.53722 z M 92.537504,188.5208 A 12.537314,12.537314 0 0 1 105.07472,201.05854 12.537314,12.537314 0 0 1 92.537504,213.59575 12.537314,12.537314 0 0 1 79.999768,201.05854 12.537314,12.537314 0 0 1 92.537504,188.5208 Z" /><circle
       style="fill:#2060df;stroke:none;stroke-width:0.232432;fill-opacity:1"
       id="path1228"
       cx="128.35822"
       cy="129.18587"
       r="11.940299" /></g><metadata
     id="metadata336"><rdf:RDF><cc:Work
         rdf:about=""><cc:license
           rdf:resource="http://creativecommons.org/licenses/by-nc-sa/4.0/" /><dc:date>2024-12-15</dc:date><dc:creator><cc:Agent><dc:title>https://github.com/ORelio/</dc:title></cc:Agent></dc:creator><dc:rights><cc:Agent><dc:title>CC BY-NC-SA v4.0</dc:title></cc:Agent></dc:rights><dc:title>Network Remote Icon</dc:title></cc:Work><cc:License
         rdf:about="http://creativecommons.org/licenses/by-nc-sa/4.0/"><cc:permits
           rdf:resource="http://creativecommons.org/ns#Reproduction" /><cc:permits
           rdf:resource="http://creativecommons.org/ns#Distribution" /><cc:requires
           rdf:resource="http://creativecommons.org/ns#Notice" /><cc:requires
           rdf:resource="http://creativecommons.org/ns#Attribution" /><cc:prohibits
           rdf:resource="http://creativecommons.org/ns#CommercialUse" /><cc:permits
           rdf:resource="http://creativecommons.org/ns#DerivativeWorks" /><cc:requires
           rdf:resource="http://creativecommons.org/ns#ShareAlike" /></cc:License></rdf:RDF></metadata></svg>
