<?xml version="1.0" encoding="UTF-8" standalone="no"?>
<!-- Created with Inkscape (http://www.inkscape.org/) -->

<svg
   width="800mm"
   height="400mm"
   viewBox="0 0 800 400"
   version="1.1"
   id="svg5"
   xml:space="preserve"
   inkscape:version="1.2.1 (9c6d41e410, 2022-07-14)"
   sodipodi:docname="repository-banner.svg"
   xmlns:inkscape="http://www.inkscape.org/namespaces/inkscape"
   xmlns:sodipodi="http://sodipodi.sourceforge.net/DTD/sodipodi-0.dtd"
   xmlns:xlink="http://www.w3.org/1999/xlink"
   xmlns="http://www.w3.org/2000/svg"
   xmlns:svg="http://www.w3.org/2000/svg"
   xmlns:rdf="http://www.w3.org/1999/02/22-rdf-syntax-ns#"
   xmlns:cc="http://creativecommons.org/ns#"
   xmlns:dc="http://purl.org/dc/elements/1.1/"><sodipodi:namedview
     id="namedview7"
     pagecolor="#ffffff"
     bordercolor="#000000"
     borderopacity="0.25"
     inkscape:showpageshadow="2"
     inkscape:pageopacity="0.0"
     inkscape:pagecheckerboard="0"
     inkscape:deskcolor="#d1d1d1"
     inkscape:document-units="mm"
     showgrid="false"
     inkscape:zoom="0.15668676"
     inkscape:cx="1362.5912"
     inkscape:cy="880.7381"
     inkscape:window-width="1920"
     inkscape:window-height="1137"
     inkscape:window-x="-8"
     inkscape:window-y="537"
     inkscape:window-maximized="1"
     inkscape:current-layer="layer1" /><defs
     id="defs2"><linearGradient
       inkscape:collect="always"
       id="linearGradient1031"><stop
         style="stop-color:#2060df;stop-opacity:1;"
         offset="0"
         id="stop1027" /><stop
         style="stop-color:#ccddff;stop-opacity:1;"
         offset="1"
         id="stop1029" /></linearGradient><linearGradient
       inkscape:collect="always"
       xlink:href="#linearGradient1031"
       id="linearGradient1033"
       x1="399.35703"
       y1="-2.1107731"
       x2="400.20135"
       y2="400.62347"
       gradientUnits="userSpaceOnUse" /></defs><g
     inkscape:label="Calque 1"
     inkscape:groupmode="layer"
     id="layer1"><rect
       style="fill:url(#linearGradient1033);fill-opacity:1;stroke-width:0.215"
       id="rect950"
       width="807.1571"
       height="406.11145"
       x="-3.3772264"
       y="-0.84430671" /><text
       xml:space="preserve"
       style="font-style:normal;font-variant:normal;font-weight:normal;font-stretch:normal;font-size:112.418px;font-family:HandelGothic;-inkscape-font-specification:'HandelGothic, Normal';font-variant-ligatures:normal;font-variant-caps:normal;font-variant-numeric:normal;font-variant-east-asian:normal;display:none;fill:#10aaea;fill-opacity:1;stroke-width:0.342563"
       x="288.31314"
       y="-222.278"
       id="text307-0"
       inkscape:label="text_raw"><tspan
         sodipodi:role="line"
         style="font-style:normal;font-variant:normal;font-weight:normal;font-stretch:normal;font-size:70.5556px;font-family:HandelGothic;-inkscape-font-specification:'HandelGothic, Normal';font-variant-ligatures:normal;font-variant-caps:normal;font-variant-numeric:normal;font-variant-east-asian:normal;fill:#10aaea;fill-opacity:1;stroke-width:0.342563"
         x="0"
         y="0"
         id="tspan650"><tspan
   style="font-style:normal;font-variant:normal;font-weight:normal;font-stretch:normal;font-size:52.9167px;font-family:HandelGothic;-inkscape-font-specification:'HandelGothic, Normal';font-variant-ligatures:normal;font-variant-caps:normal;font-variant-numeric:normal;font-variant-east-asian:normal"
   id="tspan642">R</tspan>a<tspan
   style="font-style:normal;font-variant:normal;font-weight:normal;font-stretch:normal;font-size:52.9167px;font-family:HandelGothic;-inkscape-font-specification:'HandelGothic, Normal';font-variant-ligatures:normal;font-variant-caps:normal;font-variant-numeric:normal;font-variant-east-asian:normal"
   id="tspan644">BB</tspan>it</tspan><tspan
         sodipodi:role="line"
         style="font-style:normal;font-variant:normal;font-weight:normal;font-stretch:normal;font-size:70.5556px;font-family:HandelGothic;-inkscape-font-specification:'HandelGothic, Normal';font-variant-ligatures:normal;font-variant-caps:normal;font-variant-numeric:normal;font-variant-east-asian:normal;fill:#10aaea;fill-opacity:1;stroke-width:0.342563"
         x="0"
         y="0"
         id="tspan504-6"><tspan
   style="font-style:normal;font-variant:normal;font-weight:normal;font-stretch:normal;font-size:52.9167px;font-family:HandelGothic;-inkscape-font-specification:'HandelGothic, Normal';font-variant-ligatures:normal;font-variant-caps:normal;font-variant-numeric:normal;font-variant-east-asian:normal"
   id="tspan646">H</tspan>o<tspan
   style="font-style:normal;font-variant:normal;font-weight:normal;font-stretch:normal;font-size:52.9167px;font-family:HandelGothic;-inkscape-font-specification:'HandelGothic, Normal';font-variant-ligatures:normal;font-variant-caps:normal;font-variant-numeric:normal;font-variant-east-asian:normal"
   id="tspan648">M</tspan>e</tspan></text><g
       id="g4865"
       transform="matrix(1.0665085,0,0,1.0665085,-11.00472,68.794193)"
       style="fill:#ffffff;fill-opacity:1"><g
         id="g4841"
         style="font-size:102.571px;font-family:Bahnschrift;-inkscape-font-specification:'Bahnschrift, @wght=700,wdth=99.6';font-variation-settings:'wdth' 99, 'wght' 700;display:inline;fill:#ffffff;stroke-width:0.312555;fill-opacity:1"
         inkscape:label="text-2"
         transform="translate(61.634383,-18.574745)"><path
           d="m 325.9455,187.15636 h 24.84141 q 2.10351,0 3.6561,-1.00167 1.60267,-1.05175 2.45409,-2.95492 0.9015,-1.95326 0.95159,-4.45744 v -0.35058 q 0,-2.50417 -0.90151,-4.40735 -0.85141,-1.95325 -2.45409,-2.95492 -1.55258,-1.05176 -3.70618,-1.05176 H 325.9455 v -13.17196 h 25.89317 q 6.01002,0 10.51753,2.70451 4.5576,2.65443 7.06178,7.56261 2.50417,4.8581 2.50417,11.31887 v 0.35058 q 0,6.46078 -2.50417,11.36896 -2.50418,4.8581 -7.06178,7.56261 -4.5576,2.65442 -10.51753,2.65442 H 325.9455 Z m -5.4591,-30.3506 h 13.67279 v 72.87149 H 320.4864 Z m 20.58432,41.2688 14.52421,-2.30384 19.33223,33.90653 h -16.47747 z"
           id="path4822"
           style="fill:#ffffff;fill-opacity:1" /><path
           d="m 405.62834,230.4285 q -7.41235,0 -12.7212,-2.70451 -5.25877,-2.70451 -8.01336,-7.86311 -2.75459,-5.1586 -2.75459,-12.4207 v -6.46077 q 0,-7.61269 2.65442,-12.97163 2.65443,-5.40902 7.71286,-8.21369 5.05843,-2.85476 12.22037,-2.85476 6.76127,0 11.56929,3.35559 4.80801,3.3556 7.31219,9.7162 2.50417,6.36061 2.50417,15.37563 v 3.85643 h -35.00836 v -9.26544 h 22.48749 l -0.10017,-1.40234 q -0.50083,-4.40735 -2.75459,-6.81136 -2.25376,-2.404 -6.01002,-2.404 -4.80801,0 -7.51252,2.90484 -2.65443,2.85476 -2.65443,8.16361 v 7.21202 q 0,5.1586 2.90484,8.01336 2.90485,2.85476 8.11353,2.85476 2.75459,0 5.35894,-1.00167 2.65442,-1.05175 4.75793,-2.95493 v 0 l 9.11519,7.71286 v 0 q -3.85643,3.90652 -8.86478,6.06011 -5.00834,2.1035 -10.3172,2.1035 z"
           id="path4824"
           style="fill:#ffffff;fill-opacity:1" /><path
           d="m 497.83205,199.42682 q 0,-4.50752 -2.15359,-6.91152 -2.1035,-2.4541 -6.01002,-2.4541 -3.90651,0 -6.01001,2.35393 -2.05343,2.30384 -2.05343,6.61102 l -2.50417,-11.8197 q 2.45409,-4.95827 6.31052,-7.6127 3.90651,-2.65442 8.66444,-2.65442 5.50919,0 9.4157,2.60434 3.9566,2.60434 5.95994,7.66278 2.05342,5.00835 2.05342,12.02003 v 30.45077 h -13.6728 z m -59.84977,-21.73624 h 13.67279 v 51.98667 h -13.67279 z m 29.94993,21.73624 q 0,-4.50752 -2.20368,-6.91152 -2.20367,-2.4541 -6.26043,-2.4541 -3.70618,0 -5.7596,2.10351 -2.05343,2.10351 -2.05343,5.90985 l -1.05175,-11.31887 q 2.30384,-4.80801 5.70952,-7.31219 3.45576,-2.50417 8.11352,-2.50417 5.40902,0 9.26545,2.60434 3.85643,2.60434 5.85977,7.61269 2.05342,5.00835 2.05342,12.02004 v 30.50085 h -13.67279 z"
           id="path4826"
           style="fill:#ffffff;fill-opacity:1" /><path
           d="m 545.56163,230.4285 q -7.01169,0 -12.02004,-2.60434 -4.95827,-2.60434 -7.56261,-7.61269 -2.55426,-5.00835 -2.55426,-12.07012 v -9.16528 q 0,-6.96161 2.55426,-11.91987 2.60434,-4.95827 7.56261,-7.51253 5.00835,-2.60434 12.02004,-2.60434 7.01169,0 11.96995,2.60434 5.00835,2.55426 7.61269,7.51253 2.60435,4.95826 2.60435,11.91987 v 9.31553 q 0,7.01169 -2.60435,11.96995 -2.60434,4.95827 -7.61269,7.56261 -4.95826,2.60434 -11.96995,2.60434 z m -0.0501,-13.12187 q 4.05677,0 6.31053,-2.35393 2.25375,-2.40401 2.25375,-6.71119 v -9.21536 q 0,-4.2571 -2.25375,-6.61102 -2.25376,-2.35393 -6.31053,-2.35393 -4.00668,0 -6.21035,2.35393 -2.20367,2.35392 -2.20367,6.61102 v 9.21536 q 0,4.30718 2.15359,6.71119 2.20367,2.35393 6.26043,2.35393 z"
           id="path4828"
           style="fill:#ffffff;fill-opacity:1" /><path
           d="m 594.59339,229.92767 q -6.81136,0 -10.0167,-3.45576 -3.15526,-3.50585 -3.15526,-10.3172 v -53.58934 h 13.67279 v 50.23374 q 0,1.90317 0.75126,2.95493 0.75125,1.00167 2.20367,1.00167 h 3.40568 v 13.17196 z M 576.0625,177.69058 h 25.39233 v 11.71954 H 576.0625 Z"
           id="path4830"
           style="fill:#ffffff;fill-opacity:1" /><path
           d="m 635.31127,230.4285 q -7.41236,0 -12.72121,-2.70451 -5.25877,-2.70451 -8.01336,-7.86311 -2.75459,-5.1586 -2.75459,-12.4207 v -6.46077 q 0,-7.61269 2.65442,-12.97163 2.65443,-5.40902 7.71286,-8.21369 5.05843,-2.85476 12.22037,-2.85476 6.76128,0 11.56929,3.35559 4.80802,3.3556 7.31219,9.7162 2.50418,6.36061 2.50418,15.37563 v 3.85643 h -35.00837 v -9.26544 h 22.48749 l -0.10016,-1.40234 q -0.50084,-4.40735 -2.7546,-6.81136 -2.25375,-2.404 -6.01002,-2.404 -4.80801,0 -7.51252,2.90484 -2.65443,2.85476 -2.65443,8.16361 v 7.21202 q 0,5.1586 2.90485,8.01336 2.90484,2.85476 8.11352,2.85476 2.7546,0 5.35894,-1.00167 2.65442,-1.05175 4.75793,-2.95493 v 0 l 9.1152,7.71286 v 0 q -3.85643,3.90652 -8.86478,6.06011 -5.00835,2.1035 -10.3172,2.1035 z"
           id="path4832"
           style="fill:#ffffff;fill-opacity:1" /></g><g
         aria-label="Network Remote"
         id="text307-0-2"
         style="font-size:102.571px;font-family:Bahnschrift;-inkscape-font-specification:'Bahnschrift, @wght=700,wdth=99.6';font-variation-settings:'wdth' 99, 'wght' 700;display:inline;fill:#ffffff;stroke-width:0.312555;fill-opacity:1"
         inkscape:label="text-1"
         transform="translate(-9.2873724,16.041826)"><path
           d="m 320.4864,28.642098 h 16.52755 l 26.69451,55.492513 -1.25209,1.352255 V 28.642098 h 13.07179 v 72.771322 h -16.57764 l -26.59433,-54.591013 1.202,-1.302171 V 101.41342 H 320.4864 Z"
           id="path4808"
           style="fill:#ffffff;fill-opacity:1" /><path
           d="m 412.33953,102.21475 q -7.41235,0 -12.7212,-2.704505 -5.25877,-2.704509 -8.01336,-7.863109 -2.7546,-5.1586 -2.7546,-12.420707 v -6.460771 q 0,-7.612691 2.65443,-12.971625 2.65443,-5.409018 7.71286,-8.213694 5.05843,-2.854759 12.22037,-2.854759 6.76127,0 11.56929,3.355594 4.80801,3.355594 7.31219,9.716198 2.50417,6.360604 2.50417,15.375634 v 3.856429 h -35.00836 v -9.265447 h 22.48749 l -0.10017,-1.402338 q -0.50083,-4.407347 -2.75459,-6.811355 -2.25376,-2.404008 -6.01002,-2.404008 -4.80801,0 -7.51252,2.904843 -2.65443,2.854759 -2.65443,8.16361 v 7.212023 q 0,5.1586 2.90484,8.013359 2.90485,2.854759 8.11353,2.854759 2.75459,0 5.35893,-1.001669 2.65443,-1.051754 4.75794,-2.954927 v 0 l 9.11519,7.712859 v 0 q -3.85643,3.906512 -8.86478,6.060106 -5.00835,2.1035 -10.3172,2.1035 z"
           id="path4810"
           style="fill:#ffffff;fill-opacity:1" /><path
           d="m 459.21769,101.71392 q -6.81136,0 -10.0167,-3.455763 -3.15526,-3.505844 -3.15526,-10.3172 v -53.58934 h 13.67279 v 50.233746 q 0,1.903173 0.75126,2.954926 0.75125,1.00167 2.20367,1.00167 h 3.40568 v 13.171961 z m -18.5309,-52.237088 h 25.39234 V 61.19637 h -25.39234 z"
           id="path4812"
           style="fill:#ffffff;fill-opacity:1" /><path
           d="m 473.49148,49.476832 h 13.12188 l 9.01502,32.203688 10.76796,-32.203688 h 8.16361 L 525.3279,81.68052 534.34293,49.476832 H 547.4648 L 531.63842,101.4635 H 521.42138 L 510.4531,67.506891 499.5349,101.4635 h -10.21704 z"
           id="path4814"
           style="fill:#ffffff;fill-opacity:1" /><path
           d="m 576.06247,102.21475 q -7.01169,0 -12.02004,-2.604338 -4.95827,-2.604342 -7.56261,-7.612692 -2.55426,-5.008349 -2.55426,-12.070122 v -9.16528 q 0,-6.961606 2.55426,-11.919872 2.60434,-4.958266 7.56261,-7.512524 5.00835,-2.604342 12.02004,-2.604342 7.01169,0 11.96995,2.604342 5.00835,2.554258 7.61269,7.512524 2.60435,4.958266 2.60435,11.919872 v 9.31553 q 0,7.01169 -2.60435,11.969956 -2.60434,4.958266 -7.61269,7.562608 -4.95826,2.604338 -11.96995,2.604338 z m -0.0501,-13.121872 q 4.05677,0 6.31052,-2.353925 2.25376,-2.404008 2.25376,-6.711188 v -9.215363 q 0,-4.257098 -2.25376,-6.611022 -2.25375,-2.353924 -6.31052,-2.353924 -4.00668,0 -6.21035,2.353924 -2.20367,2.353924 -2.20367,6.611022 v 9.215363 q 0,4.30718 2.15359,6.711188 2.20367,2.353925 6.26043,2.353925 z"
           id="path4816"
           style="fill:#ffffff;fill-opacity:1" /><path
           d="m 610.57,49.476832 h 14.67446 V 101.4635 H 610.57 Z m 29.09851,14.373964 q -1.00167,-0.951587 -2.45409,-1.402338 -1.40234,-0.500835 -3.25543,-0.500835 -4.15693,0 -6.46077,2.704509 -2.25376,2.654425 -2.25376,7.412357 l -1.05175,-13.522544 q 2.15359,-4.657765 5.55927,-7.212023 3.45576,-2.604342 7.56261,-2.604342 3.10517,0 5.60935,1.00167 2.55426,0.951586 4.40735,2.904843 z"
           id="path4818"
           style="fill:#ffffff;fill-opacity:1" /><path
           d="m 660.40309,82.582023 23.88983,-33.105191 h 14.42404 l -36.51086,48.28049 z m -6.51085,-53.939925 h 13.67279 V 101.4635 h -13.67279 z m 18.58097,46.026733 11.16862,-6.911523 17.62939,33.706192 h -15.7763 z"
           id="path4820"
           style="fill:#ffffff;fill-opacity:1" /></g></g><g
       id="g4407"
       inkscape:label="icon"
       transform="translate(-384.59852,64.167303)"
       style="fill:#ffffff;fill-opacity:1"><path
         id="path430"
         style="fill:#ffffff;fill-opacity:1;stroke:none;stroke-width:0.215"
         d="m 586.89096,21.031851 c -0.23385,7.2e-4 0,0.0041 0,0.0041 v 24.484811 c 0,0 19.26101,-0.432775 33.7721,13.086539 14.5111,13.519315 13.93145,33.772616 13.93145,33.772616 h 23.64042 c 0,0 2.12528,-25.722738 -18.99678,-48.970138 C 619.43622,21.615376 590.39878,21.021042 586.89096,21.031851 Z m 0,35.800399 c -1.2018,0.0098 0,0.08682 0,0.08682 v 24.484811 c 0,0 5.22475,-0.432756 8.12664,2.005045 2.90188,2.437801 3.06028,8.971029 3.06028,8.971029 h 24.27397 c 0,0 0.85858,-15.907559 -10.02627,-26.490373 -8.50378,-8.267822 -19.24439,-9.092167 -23.53654,-9.057328 z"
         sodipodi:nodetypes="sccsccsssccsccsss" /><path
         id="path1172"
         style="display:inline;fill:#ffffff;fill-opacity:1;stroke:none;stroke-width:0.215"
         d="m 539.48714,68.459447 a 26.412796,26.412796 0 0 0 -20.55895,7.739063 l -90.47407,91.10866 a 26.598099,26.598099 0 0 0 0.032,37.51606 l 46.52946,46.69482 a 26.380723,26.380723 0 0 0 37.36258,0.0119 l 90.98411,-91.19599 a 26.442241,26.442241 0 0 0 -0.0548,-37.40598 L 556.3135,76.100324 a 26.412796,26.412796 0 0 0 -16.82636,-7.640877 z m -0.12454,35.003033 a 36.417912,36.417912 0 0 1 36.41793,36.41794 36.417912,36.417912 0 0 1 -36.41793,36.41793 36.417912,36.417912 0 0 1 -36.41794,-36.41793 36.417912,36.417912 0 0 1 36.41794,-36.41794 z m -71.64163,59.93227 a 12.537314,12.537314 0 0 1 12.53722,12.53722 12.537314,12.537314 0 0 1 -12.53722,12.53722 12.537314,12.537314 0 0 1 -12.53721,-12.53722 12.537314,12.537314 0 0 1 12.53721,-12.53722 z m 35.82107,35.82055 a 12.537314,12.537314 0 0 1 12.53722,12.53774 12.537314,12.537314 0 0 1 -12.53722,12.53721 12.537314,12.537314 0 0 1 -12.53773,-12.53721 12.537314,12.537314 0 0 1 12.53773,-12.53774 z" /><circle
         style="fill:#ffffff;fill-opacity:1;stroke:none;stroke-width:0.232432"
         id="path1228"
         cx="539.36273"
         cy="139.88037"
         r="11.940299" /></g></g><metadata
     id="metadata336"><rdf:RDF><cc:Work
         rdf:about=""><cc:license
           rdf:resource="http://creativecommons.org/licenses/by-nc-sa/4.0/" /><dc:date>2024-12-15</dc:date><dc:creator><cc:Agent><dc:title>https://github.com/ORelio/</dc:title></cc:Agent></dc:creator><dc:rights><cc:Agent><dc:title>CC BY-NC-SA v4.0</dc:title></cc:Agent></dc:rights><dc:title>Network Remote Banner</dc:title></cc:Work><cc:License
         rdf:about="http://creativecommons.org/licenses/by-nc-sa/4.0/"><cc:permits
           rdf:resource="http://creativecommons.org/ns#Reproduction" /><cc:permits
           rdf:resource="http://creativecommons.org/ns#Distribution" /><cc:requires
           rdf:resource="http://creativecommons.org/ns#Notice" /><cc:requires
           rdf:resource="http://creativecommons.org/ns#Attribution" /><cc:prohibits
           rdf:resource="http://creativecommons.org/ns#CommercialUse" /><cc:permits
           rdf:resource="http://creativecommons.org/ns#DerivativeWorks" /><cc:requires
           rdf:resource="http://creativecommons.org/ns#ShareAlike" /></cc:License></rdf:RDF></metadata></svg>
